<svg fill="none" height="28" viewBox="0 0 28 28" width="28" xmlns="http://www.w3.org/2000/svg">
    <g clip-path="url(#clip0_44_763)">
        <path
            d="M14.1543 27.5643C21.6906 27.5643 27.8 21.5768 27.8 14.1909C27.8 6.80507 21.6906 0.817627 14.1543 0.817627C6.618 0.817627 0.508606 6.80507 0.508606 14.1909C0.508606 21.5768 6.618 27.5643 14.1543 27.5643Z"
            fill="#F0F0F0" />
        <path
            d="M14.1545 0.817261C8.28732 0.817261 3.28559 4.44644 1.35754 9.53901H26.9515C25.0234 4.44644 20.0217 0.817261 14.1545 0.817261Z"
            fill="#D80027" />
        <path
            d="M14.1545 27.5646C20.0217 27.5646 25.0234 23.9355 26.9515 18.8429H1.35754C3.28559 23.9355 8.28732 27.5646 14.1545 27.5646Z"
            fill="black" />
        <path
            d="M18.9006 12.7372H15.3408C15.3408 12.095 14.8096 11.5743 14.1543 11.5743C13.4989 11.5743 12.9677 12.095 12.9677 12.7372H9.4079C9.4079 13.3795 9.97872 13.9001 10.634 13.9001H10.5945C10.5945 14.5424 11.1257 15.0631 11.7811 15.0631C11.7811 15.7053 12.3123 16.226 12.9677 16.226H15.3408C15.9962 16.226 16.5274 15.7053 16.5274 15.0631C17.1828 15.0631 17.714 14.5424 17.714 13.9001H17.6745C18.3298 13.9001 18.9006 13.3795 18.9006 12.7372Z"
            fill="#FF9811" />
    </g>
    <defs>
        <clipPath id="clip0_44_763">
            <rect fill="white" height="26.7466" transform="translate(0.508606 0.817627)"
                width="27.2914" />
        </clipPath>
    </defs>
</svg>
