<svg fill="none" height="24" viewBox="0 0 28 24" width="28" xmlns="http://www.w3.org/2000/svg">
    <path
        d="M0 19.875V4.125C0 3.19674 0.368749 2.3065 1.02513 1.65013C1.6815 0.99375 2.57174 0.625001 3.5 0.625001H10.7975C11.2593 0.624635 11.7167 0.715679 12.1432 0.892885C12.5697 1.07009 12.9569 1.32996 13.2825 1.6575L16.4675 4.8425C16.7931 5.17005 17.1803 5.42991 17.6068 5.60712C18.0333 5.78432 18.4907 5.87537 18.9525 5.875H24.5C25.4283 5.875 26.3185 6.24375 26.9749 6.90013C27.6313 7.55651 28 8.44674 28 9.375V19.875C28 20.8033 27.6313 21.6935 26.9749 22.3499C26.3185 23.0063 25.4283 23.375 24.5 23.375H3.5C2.57174 23.375 1.6815 23.0063 1.02513 22.3499C0.368749 21.6935 0 20.8033 0 19.875Z"
        fill="#F6BD00" />
</svg>
