<svg fill="none" height="28" viewBox="0 0 28 28" width="28" xmlns="http://www.w3.org/2000/svg">
    <g clip-path="url(#clip0_44_761)">
        <path
            d="M13.7086 27.5643C21.2449 27.5643 27.3543 21.5768 27.3543 14.1909C27.3543 6.80507 21.2449 0.817627 13.7086 0.817627C6.17229 0.817627 0.0628967 6.80507 0.0628967 14.1909C0.0628967 21.5768 6.17229 27.5643 13.7086 27.5643Z"
            fill="#F0F0F0" />
        <path
            d="M3.18201 5.68002H24.2352C23.4576 4.75721 22.5557 3.93888 21.5553 3.24854H5.86195C4.8615 3.93878 3.95965 4.75716 3.18201 5.68002Z"
            fill="#F0F0F0" />
        <path
            d="M0.0628967 14.1916C0.0628967 14.6015 0.082779 15.0068 0.119612 15.4073H27.2976C27.3344 15.0068 27.3543 14.6015 27.3543 14.1916C27.3543 13.7816 27.3344 13.3764 27.2976 12.9758H0.119612C0.082779 13.3764 0.0628967 13.7816 0.0628967 14.1916Z"
            fill="#F0F0F0" />
        <path
            d="M1.55126 20.2698H25.8666C26.2684 19.4995 26.5961 18.6861 26.8408 17.8384H0.577087C0.821697 18.6861 1.14951 19.4995 1.55126 20.2698Z"
            fill="#F0F0F0" />
        <path
            d="M5.86195 25.1327H21.5552C22.5557 24.4423 23.4576 23.624 24.2351 22.7012H3.18201C3.95965 23.6239 4.8615 24.4423 5.86195 25.1327Z"
            fill="#F0F0F0" />
        <path
            d="M0.576965 10.5443H26.8408C26.5961 9.69654 26.2684 8.88306 25.8666 8.11279H1.55119C1.14945 8.88306 0.821629 9.69654 0.576965 10.5443Z"
            fill="#F0F0F0" />
        <path
            d="M6.58838 3.24924H21.5545C19.335 1.71768 16.6287 0.817749 13.7079 0.817749C11.928 0.817749 8.80794 1.71768 6.58838 3.24924Z"
            fill="#D80027" />
        <path
            d="M13.1153 8.11203H25.8662C25.4125 7.24208 24.8644 6.4272 24.2352 5.68054H13.1153V8.11203Z"
            fill="#D80027" />
        <path
            d="M13.1153 12.9746H27.2976C27.2208 12.1397 27.0665 11.3266 26.8405 10.5431H13.1153V12.9746Z"
            fill="#D80027" />
        <path
            d="M0.576272 17.8393H26.84C27.0661 17.0558 27.2204 16.2427 27.2971 15.4078H0.119141C0.195898 16.2427 0.350158 17.0558 0.576272 17.8393Z"
            fill="#D80027" />
        <path
            d="M3.18169 22.7019H24.2349C24.8641 21.9551 25.4122 21.1403 25.866 20.2704H1.5506C2.00437 21.1403 2.55244 21.9552 3.18169 22.7019Z"
            fill="#D80027" />
        <path
            d="M13.7078 27.5648C16.6286 27.5648 19.3349 26.6649 21.5544 25.1333H5.86111C8.08067 26.6649 10.7869 27.5648 13.7078 27.5648Z"
            fill="#D80027" />
        <path
            d="M0.576737 10.5432C0.350624 11.3268 0.196416 12.1398 0.119659 12.9747H13.7086V0.817139C7.46254 0.817139 2.19674 4.93006 0.576737 10.5432Z"
            fill="#0052B4" />
        <path
            d="M8.18622 4.3064L9.06973 6.9714H11.9292L9.61598 8.61862L10.4994 11.2838L8.18622 9.63666L5.8729 11.2838L6.75657 8.61862L4.4433 6.9714H7.30266L8.18622 4.3064Z"
            fill="#F0F0F0" />
    </g>
    <defs>
        <clipPath id="clip0_44_761">
            <rect fill="white" height="26.7466" transform="translate(0.0628967 0.817627)"
                width="27.2914" />
        </clipPath>
    </defs>
</svg>
